<svg width="65" height="53" viewBox="0 0 65 53" fill="none" xmlns="http://www.w3.org/2000/svg">
<path d="M32.5072 12.9115C23.2847 12.9115 15.8458 18.9784 15.8458 26.5C15.8458 34.0216 23.2847 40.0885 32.5072 40.0885C41.7298 40.0885 49.1687 34.0216 49.1687 26.5C49.1687 18.9784 41.7298 12.9115 32.5072 12.9115ZM32.5072 35.3343C26.5474 35.3343 21.6751 31.3725 21.6751 26.5C21.6751 21.6275 26.5329 17.6657 32.5072 17.6657C38.4816 17.6657 43.3394 21.6275 43.3394 26.5C43.3394 31.3725 38.4671 35.3343 32.5072 35.3343ZM53.7365 12.3556C53.7365 14.1178 51.9964 15.5251 49.8503 15.5251C47.6896 15.5251 45.964 14.1059 45.964 12.3556C45.964 10.6053 47.7041 9.18615 49.8503 9.18615C51.9964 9.18615 53.7365 10.6053 53.7365 12.3556ZM64.7716 15.5724C64.5251 11.3267 63.336 7.56594 59.5223 4.46742C55.7231 1.36891 51.1118 0.399141 45.906 0.186266C40.5407 -0.0620886 24.4593 -0.0620886 19.094 0.186266C13.9027 0.387314 9.29141 1.35708 5.47769 4.4556C1.66397 7.55411 0.489403 11.3149 0.228388 15.5606C-0.0761294 19.9363 -0.0761294 33.0518 0.228388 37.4276C0.474902 41.6733 1.66397 45.4341 5.47769 48.5326C9.29141 51.6311 13.8882 52.6009 19.094 52.8137C24.4593 53.0621 40.5407 53.0621 45.906 52.8137C51.1118 52.6127 55.7231 51.6429 59.5223 48.5326C63.3215 45.4341 64.5106 41.6733 64.7716 37.4276C65.0761 33.0518 65.0761 19.9482 64.7716 15.5724ZM57.8402 42.1227C56.7091 44.4406 54.5195 46.2264 51.6629 47.1607C47.3851 48.5444 37.2345 48.2251 32.5072 48.2251C27.78 48.2251 17.6149 48.5326 13.3516 47.1607C10.5095 46.2383 8.31985 44.4525 7.17429 42.1227C5.47769 38.6339 5.86921 30.3554 5.86921 26.5C5.86921 22.6446 5.49219 14.3543 7.17429 10.8773C8.30535 8.55935 10.495 6.77357 13.3516 5.83928C17.6294 4.4556 27.78 4.77491 32.5072 4.77491C37.2345 4.77491 47.3996 4.46742 51.6629 5.83928C54.505 6.76174 56.6946 8.54753 57.8402 10.8773C59.5368 14.3661 59.1453 22.6446 59.1453 26.5C59.1453 30.3554 59.5368 38.6457 57.8402 42.1227Z" fill="black"/>
</svg>
