<svg width="65" height="52" viewBox="0 0 65 52" fill="none" xmlns="http://www.w3.org/2000/svg">
<path d="M58.3187 12.9593C58.3599 13.5281 58.36 14.0969 58.36 14.6656C58.36 32.0124 44.9558 52 20.4569 52C12.9093 52 5.89788 49.8468 0 46.1094C1.07238 46.2312 2.10337 46.2719 3.21701 46.2719C9.44472 46.2719 15.1777 44.2001 19.7558 40.6657C13.8991 40.5438 8.99111 36.7657 7.30009 31.5656C8.12503 31.6874 8.94985 31.7687 9.81605 31.7687C11.0121 31.7687 12.2082 31.6061 13.3218 31.3219C7.21769 30.103 2.63949 24.8219 2.63949 18.4437V18.2813C4.41291 19.2563 6.47527 19.8657 8.66103 19.9468C5.07281 17.5905 2.72201 13.5687 2.72201 9.01866C2.72201 6.5812 3.38179 4.34683 4.53669 2.39681C11.0945 10.3593 20.9518 15.5592 32.005 16.1281C31.7988 15.1531 31.6751 14.1375 31.6751 13.1219C31.6751 5.89056 37.6142 0 44.9968 0C48.8325 0 52.2969 1.58437 54.7303 4.14375C57.7411 3.57503 60.6281 2.4781 63.1853 0.975007C62.1953 4.02195 60.092 6.58133 57.3287 8.20621C60.0096 7.92198 62.6079 7.19057 65 6.17504C63.1856 8.77494 60.917 11.0905 58.3187 12.9593Z" fill="black"/>
</svg>
