<svg width="65" height="53" viewBox="0 0 65 53" fill="none" xmlns="http://www.w3.org/2000/svg">
<path d="M63.6418 8.29271C62.8942 5.02851 60.6917 2.45774 57.8951 1.58531C52.8261 0 32.5 0 32.5 0C32.5 0 12.174 0 7.10492 1.58531C4.30835 2.45787 2.10579 5.02851 1.35824 8.29271C0 14.2092 0 26.5536 0 26.5536C0 26.5536 0 38.8979 1.35824 44.8144C2.10579 48.0786 4.30835 50.5423 7.10492 51.4147C12.174 53 32.5 53 32.5 53C32.5 53 52.826 53 57.8951 51.4147C60.6917 50.5423 62.8942 48.0786 63.6418 44.8144C65 38.8979 65 26.5536 65 26.5536C65 26.5536 65 14.2092 63.6418 8.29271ZM25.8522 37.7613V15.3458L42.8408 26.5538L25.8522 37.7613Z" fill="black"/>
</svg>
